# xmcd
#
# Track frame offsets:
#	150
#	16710
#	33485
#	47352
#	65020
#	81890
#	92422
#	103437
#	121952
#	134545
#	147850
#	160015
#	173302
#	192690
#	205885
#	226957
#	238362
#	248287
#	264242
#	276695
#
# Disc length: 3889 seconds
#
# Revision: 1
# Processed by: cddbd v1.5.1PL2 Copyright (c) Steve Scherf et al.
# Submitted via: audiograbber 1.83.01
#
DISCID=140f2f14
DTITLE=Various Artist - Just Country
DYEAR=1900
DGENRE=Country
TTITLE0=Sims, Wade - Big tomato two step
TTITLE1=Boe, Bente - Smokey Mountain Queen
TTITLE2=Hilburn, Jerry Wayne - A day over lovin' you
TTITLE3=Mehaffey, Derrick - Rumors get around
TTITLE4=Keener, Labron - Heart of Texas
TTITLE5=Reddin, Danielle - It's not easy being me
TTITLE6=Hollar, Ernie - I think she really means it this time
TTITLE7=Wyatt, Chris - Comes and goes
TTITLE8=Richards, R.C. - I can hear the music again
TTITLE9=Henderson, Pete - Between them hills
TTITLE10=Reddin, Danielle - Monkey business
TTITLE11=Moore, Donny -  Hoseé Cuervo's got him again
TTITLE12=Brown, Diana - Every time a tear falls
TTITLE13=Ray, Fred Harmon - I just thought you' like to know
TTITLE14=Clingan, Redbird - The old yodeler
TTITLE15=Black, Sherrill - The best part of the day
TTITLE16=Cooper, Roger - Nuttin' like my baby
TTITLE17=Horner, Tom - Country jamboree
TTITLE18=Reynolds, Lawrence - the memory that never sleeps
TTITLE19=Headrick, Mike - Strong as steel (instr.)
EXTD=
EXTT0=
EXTT1=
EXTT2=
EXTT3=
EXTT4=
EXTT5=
EXTT6=
EXTT7=
EXTT8=
EXTT9=
EXTT10=
EXTT11=
EXTT12=
EXTT13=
EXTT14=
EXTT15=
EXTT16=
EXTT17=
EXTT18=
EXTT19=
PLAYORDER=
